<mxfile host="app.diagrams.net" modified="2023-11-09T10:03:56.350Z" agent="Mozilla/5.0 (Macintosh; Intel Mac OS X 10_15_7) AppleWebKit/537.36 (KHTML, like Gecko) Chrome/119.0.0.0 Safari/537.36" version="22.1.0" etag="jsBZvM0xhMcE-01NXHPy" type="github">
  <diagram name="第 1 页" id="ge6LLCgLeEXGbDlDEEAN">
    <mxGraphModel>
      <root>
        <mxCell id="0" />
        <mxCell id="1" parent="0" />
      </root>
    </mxGraphModel>
  </diagram>
</mxfile>
